<svg
    id="Bookmark"
   	version="1.1"
   	viewBox="0 0 400 400"
   	xmlns="http://www.w3.org/2000/svg">
  	<path
     	fill="rgb(205, 201, 201)"
     	d="M 10.994505,2.3909369 C 8.2720561,3.9124422 5.0260594,6.8467738 3.1412871,9.5637475 L 0,14.345621 V 199.96927 385.59291 l 3.1412871,4.78187 c 5.6543169,8.36828 17.1723699,11.95469 25.9679739,8.04225 1.884772,-0.76076 29.737518,-24.23541 61.883356,-52.05722 58.009103,-50.20967 58.637363,-50.75307 60.731553,-48.68817 10.88979,10.10714 116.0182,99.87596 118.2171,100.96274 1.57065,0.65208 5.23548,1.30415 8.16735,1.30415 9.94741,0 18.6383,-7.28149 20.7325,-17.38863 0.83767,-3.91244 1.1518,-58.25192 1.1518,-183.55874 0,-199.09983895 0.52355,-185.51497 -7.43438,-192.9051389 C 290.25493,3.9124422 287.21835,1.6301842 285.75242,1.0867895 284.07707,0.4347158 231.82699,0 149.31585,0 H 15.601726 Z" />
</svg>
