<svg
	id="Filter"
   	version="1.1"
   	viewBox="0 0 510 510"
   	xmlns="http://www.w3.org/2000/svg">
  	<path
     	fill="rgb(205, 201, 201)"
     	d="M 12.970391,0.81648519 C 8.2804908,2.2122715 2.0938144,8.6927079 0.69682293,13.877057 -0.79995363,19.460202 0.19789741,37.904522 2.8920952,53.158472 9.2783418,90.047111 27.139876,125.83906 52.485292,152.4587 c 4.190975,4.48645 29.735961,27.71633 56.777728,51.74379 50.99019,45.46276 55.18116,49.65012 60.76913,62.21219 6.18668,14.05756 5.78754,6.97893 6.38625,123.62679 l 0.49892,106.67795 2.29506,3.68887 c 4.59012,7.37773 13.57077,11.16629 21.65337,8.97291 3.09334,-0.79759 23.94842,-14.15726 65.6586,-41.97329 33.52779,-22.33258 61.86676,-41.57449 62.76483,-42.57148 4.78968,-5.48345 4.78968,-5.18435 4.78968,-72.87999 0,-69.39052 0.0998,-70.38751 5.78754,-83.94657 5.88732,-13.85817 9.18023,-17.34763 61.36784,-63.80738 27.04176,-24.02746 52.58675,-47.25734 56.77772,-51.74379 24.148,-25.72235 40.51275,-56.928143 48.29599,-92.221597 1.9957,-8.673815 2.6942,-15.253951 3.09334,-29.311513 L 510,12.680669 507.40559,8.792407 C 506.0086,6.6987275 503.11483,3.9071549 501.01934,2.6110676 L 497.22751,0.21829105 256.74541,0.018893 C 106.86818,-0.08080602 15.065878,0.21829105 12.970391,0.81648519 Z M 468.09026,47.774725 c -3.19313,18.045523 -13.07185,42.372085 -23.54929,57.825435 -9.67915,14.45636 -17.76175,22.53198 -66.05774,65.40256 -26.84219,23.82806 -51.08997,45.66215 -53.78417,48.45372 -10.57722,11.16629 -19.85723,26.71934 -24.94627,41.87359 -5.18883,15.65275 -5.58797,21.13619 -5.58797,82.94959 v 56.92814 l -38.41726,25.52295 c -21.15445,14.15726 -38.61684,25.62265 -38.9162,25.62265 -0.19957,0 -0.59871,-38.88262 -0.79828,-86.53875 -0.39914,-93.71708 -0.0998,-89.33033 -5.9871,-106.37886 -4.88947,-14.15726 -13.96992,-29.11211 -24.34757,-39.97931 C 183.104,216.66487 158.956,194.83078 132.01403,171.00272 102.37785,144.68218 80.524907,124.44327 76.633287,119.75742 58.472399,97.923333 45.79969,71.004597 41.908071,45.282249 L 41.010005,39.599405 H 255.24863 469.48725 Z"
	/>
</svg>
