<svg
   	version="1.1"
   	width="100mm"
   	height="100mm"
   	xmlns="http://www.w3.org/2000/svg">
   	<path
     	id="Blac" 
     	fill="black"
     	d="M 2.3187435,99.687759 C 1.1466738,99.044016 0.33111908,97.551049 0.06945973,95.57017 -0.28875319,92.858325 0.77350701,90.049747 2.4501085,89.275781 2.9849199,89.028896 8.3957101,89.0027 50.254764,89.044275 l 47.201589,0.04683 0.658145,0.513223 c 1.24261,0.968966 1.885501,2.644174 1.885501,4.913082 0,2.268908 -0.642891,3.944116 -1.885501,4.913091 l -0.658145,0.513211 -47.262124,0.04048 C 4.645762,100.02312 2.9098728,100.01246 2.3187435,99.687759 Z m 0,-44.51408 C 1.1466738,54.529935 0.33111908,53.036957 0.06945973,51.056078 -0.28875319,48.344244 0.77350701,45.535655 2.4501085,44.761701 2.9849199,44.514828 8.3957101,44.48862 50.254764,44.530183 l 47.201589,0.04683 0.658145,0.51321 c 1.24261,0.968979 1.885501,2.644175 1.885501,4.913095 0,2.26892 -0.642891,3.944116 -1.885501,4.913091 L 97.456353,55.42962 50.194229,55.4701 C 4.645762,55.509032 2.9098728,55.498372 2.3187435,55.173667 Z m 0,-44.51408 C 1.1466738,10.015855 0.33111908,8.5228767 0.06945973,6.5419977 -0.28875319,3.8301643 0.77350701,1.0215747 2.4501085,0.24762068 2.9849199,7.3540101e-4 8.3957101,-0.02545993 50.254764,0.01610285 l 47.201589,0.04683298 0.658145,0.51321045 c 1.24261,0.96897562 1.885501,2.64417112 1.885501,4.91309142 0,2.2689198 -0.642891,3.9441153 -1.885501,4.9130913 l -0.658145,0.51321 -47.262124,0.04048 C 4.645762,10.995071 2.9098728,10.984291 2.3187435,10.659587 Z"
	/>
</svg>
