<svg
   	version="1.1"
   	width="100%"
   	height="100%"
	viewBox="0 0 510 210"
   	xmlns="http://www.w3.org/2000/svg">
  	<path
     	id="Lense"
     	fill="black"
    	d="M 185.44972,0.25498771 C 164.79597,2.2493852 149.13105,5.4404213 133.36635,11.024735 62.325403,35.755264 12.437103,96.783829 1.2621244,172.67065 c -1.8957553,12.5647 -1.5964255,43.1787 0.498883,56.24201 6.8845855,43.57759 26.1414686,81.7703 56.2740026,111.48682 38.513768,38.19271 87.10497,58.1367 141.38344,58.1367 37.61578,0 76.22933,-11.06892 106.26209,-30.51429 3.89128,-2.49299 7.28368,-4.38768 7.38346,-4.18823 0.0997,0.0997 1.09755,2.493 2.09531,5.28515 0.99776,2.69244 3.09307,6.78095 4.58972,8.97479 1.49666,2.19384 30.03276,31.21232 63.45792,64.51876 66.05211,65.91484 64.15635,64.2196 78.12508,66.81232 12.3723,2.29355 26.8399,-2.39328 36.21891,-11.86667 9.47878,-9.37367 14.16827,-23.83305 11.87341,-36.19831 -2.59419,-13.96078 -0.89799,-12.06611 -66.85032,-78.08067 -33.32538,-33.40615 -62.36038,-61.92604 -64.55546,-63.42184 -2.19509,-1.4958 -6.18615,-3.58992 -8.9799,-4.58712 -2.69396,-0.99719 -5.0886,-1.99439 -5.28816,-2.09412 -0.19955,-0.0998 1.89576,-3.78935 4.68951,-8.17702 19.75576,-31.51148 30.03275,-67.61007 30.03275,-105.40391 0,-53.94846 -19.75576,-102.212872 -57.47132,-140.704745 C 311.3678,28.774872 273.05359,9.2297767 229.85032,2.1496654 220.47131,0.65386721 193.2323,-0.54277131 185.44972,0.25498771 Z M 220.67087,52.009604 c 23.54727,3.490196 47.69321,13.262743 66.05211,26.724927 52.18316,38.292429 73.7349,104.606149 54.17869,166.731639 -10.97542,34.80223 -37.71555,66.91203 -70.84139,84.96132 -35.32092,19.24594 -80.32015,23.03529 -118.53459,10.07172 C 54.742382,307.49193 18.922583,189.42359 81.083404,108.45105 109.12063,72.0533 151.62546,51.012405 198.22113,50.613526 c 6.98436,0 17.06181,0.598319 22.44974,1.396078 z"
	/>
</svg>
