<svg
    id="Settings" 
   	version="1.1"
	viewBox="0 0 500 500"
   	xmlns="http://www.w3.org/2000/svg">
  	<path
	 	fill="rgb(205, 201, 201)"
     	d="m 239.45689,1.4401845 c -9.67405,2.5404322 -16.02569,6.3510805 -23.64767,14.0700865 -5.76534,5.862536 -7.91512,8.891512 -10.06491,14.265504 -7.62197,18.466988 -21.88875,34.295834 -34.29888,38.008774 -11.13981,3.419812 -30.39018,1.367925 -45.43869,-4.59232 -13.38732,-5.373991 -27.458653,-4.787738 -40.84597,1.85647 -21.69331,10.552564 -31.367354,37.520221 -21.986463,61.068081 4.690445,11.72507 6.351645,20.812 5.960774,33.31874 -0.39087,9.57548 -0.781741,11.62736 -3.126964,16.4151 -3.029246,6.25337 -12.214701,15.92656 -20.129828,21.30055 -3.029246,2.05189 -10.162632,5.96024 -15.830254,8.69609 -8.501432,4.10378 -11.237525,5.96025 -16.123406,11.13882 -19.1526523,20.51888 -18.468629,47.38883 1.563482,67.22375 5.960774,5.86253 8.794585,7.91442 14.462207,10.25943 17.784606,7.23047 34.201165,21.98451 37.816717,33.905 3.420116,11.33424 1.465764,30.48519 -4.592728,45.63007 -5.374469,13.38613 -4.788163,27.45621 1.856634,40.84234 10.553503,21.69138 37.523569,31.36456 60.975799,21.98451 15.14623,-6.05796 34.29888,-8.01214 45.43869,-4.59232 12.31242,3.61523 27.16549,20.42116 34.68975,38.98586 3.02925,7.6213 14.55992,19.54179 22.57277,23.35243 15.14623,7.23047 27.45865,7.23047 42.60488,0 8.50143,-4.10377 19.4458,-15.63342 22.96364,-24.32952 5.5699,-13.38612 15.34166,-26.38141 25.40658,-33.70958 11.13981,-8.10984 33.71257,-7.91442 54.33099,0.29313 13.38731,5.37399 27.45865,4.78773 40.84596,-1.85647 21.69331,-10.55257 31.36736,-37.52023 21.98647,-60.97038 -5.96078,-15.04717 -8.01285,-34.29583 -4.59273,-45.43465 3.71327,-12.40903 19.54352,-26.67454 38.01215,-34.29583 5.37447,-2.1496 8.40372,-4.2992 14.26677,-10.06402 7.91513,-7.81672 11.53068,-14.07009 14.16906,-24.0364 3.81098,-14.65634 -0.87946,-30.5829 -12.60557,-43.18735 -4.88589,-5.17857 -7.62198,-7.03504 -16.12341,-11.13882 -21.20472,-10.16172 -34.00573,-21.8868 -37.719,-34.39354 -3.42012,-11.13882 -1.36805,-30.38748 4.59273,-45.43465 5.37447,-13.38613 4.78816,-27.456212 -1.85664,-40.842332 -10.5535,-21.691382 -37.52356,-31.364566 -60.97579,-21.984509 -15.04851,5.960245 -34.29888,8.012132 -45.43869,4.59232 C 316.16521,64.071609 301.89844,48.242763 294.27647,29.775775 292.12668,24.401783 289.97689,21.372807 284.21155,15.510271 271.11739,2.3195649 254.99399,-2.7612995 239.45689,1.4401845 Z M 263.69086,159.63094 c 35.17834,5.27628 64.00503,30.38748 74.16766,64.78102 11.04209,36.93398 -3.71327,78.7534 -35.27605,100.54249 -17.10059,11.82278 -31.66051,16.31739 -52.57208,16.31739 -29.99931,0.0977 -55.40589,-12.60445 -73.97223,-37.03168 -16.90515,-22.17993 -22.08419,-54.03304 -13.2896,-81.9778 11.72611,-37.12939 47.00217,-63.31538 86.28465,-63.99935 2.93153,0 9.57633,0.58626 14.65765,1.36793 z" 
	/>
</svg>
